<svg width="23" height="21" viewBox="0 0 23 21" fill="none" xmlns="http://www.w3.org/2000/svg">
<path d="M21.5449 0.932789C21.263 0.712119 20.9346 0.558398 20.5846 0.483239C20.2346 0.408081 19.872 0.41345 19.5244 0.498941L15.1487 1.60215C14.9688 1.63937 14.7832 1.63937 14.6033 1.60215L8.43029 0.0650931C8.05512 -0.0216977 7.66507 -0.0216977 7.2899 0.0650931L2.07133 1.37903C1.56151 1.50468 1.10857 1.79769 0.784969 2.21119C0.461365 2.62468 0.285797 3.13476 0.286352 3.65983V17.481C0.283069 17.8398 0.363083 18.1944 0.520099 18.5171C0.677116 18.8397 0.906852 19.1215 1.19123 19.3403C1.47314 19.561 1.80151 19.7147 2.15153 19.7899C2.50155 19.865 2.86408 19.8597 3.21173 19.7742L7.58739 18.671C7.76729 18.6337 7.9529 18.6337 8.1328 18.671L14.3058 20.208C14.4934 20.2477 14.6844 20.2684 14.876 20.27C15.0677 20.2678 15.2586 20.247 15.4462 20.208L20.6648 18.8941C21.1746 18.7684 21.6276 18.4754 21.9512 18.0619C22.2748 17.6484 22.4503 17.1384 22.4498 16.6133V2.79214C22.4531 2.43334 22.373 2.07867 22.216 1.75603C22.059 1.4334 21.8293 1.15159 21.5449 0.932789ZM7.24031 17.481L2.91423 18.5594C2.74976 18.6034 2.57733 18.6088 2.41044 18.575C2.24356 18.5413 2.08675 18.4694 1.95229 18.3649C1.81783 18.2605 1.70937 18.1263 1.6354 17.973C1.56143 17.8196 1.52396 17.6512 1.52592 17.481V3.65983C1.52666 3.41198 1.60992 3.17144 1.76255 2.97616C1.91518 2.78088 2.12849 2.64199 2.36882 2.58141L7.24031 1.35424V17.481ZM14.2563 18.9189L8.47988 17.481V1.35424L14.2563 2.79214V18.9189ZM21.2102 16.6133C21.2095 16.8611 21.1262 17.1017 20.9736 17.297C20.8209 17.4922 20.6076 17.6311 20.3673 17.6917L15.4958 18.9189V2.79214L19.8219 1.71371C19.9875 1.67114 20.1607 1.66688 20.3282 1.70125C20.4958 1.73561 20.6533 1.8077 20.7888 1.91205C20.9221 2.01634 21.0295 2.15005 21.1026 2.30271C21.1757 2.45538 21.2125 2.62288 21.2102 2.79214V16.6133Z" fill="#F5F8F8"/>
</svg>
