<svg width="15" height="21" viewBox="0 0 15 21" fill="none" xmlns="http://www.w3.org/2000/svg">
<path d="M7.14312 0.13501C3.20458 0.13501 0 3.19986 0 6.96562C0 8.75899 0.817441 11.1439 2.42955 14.0543C3.72425 16.391 5.22207 18.504 6.00112 19.5554C6.13276 19.735 6.30488 19.8811 6.50352 19.9818C6.70217 20.0825 6.92175 20.135 7.14446 20.135C7.36718 20.135 7.58676 20.0825 7.7854 19.9818C7.98405 19.8811 8.15617 19.735 8.28781 19.5554C9.06552 18.504 10.5647 16.391 11.8594 14.0543C13.4688 11.1448 14.2862 8.75988 14.2862 6.96562C14.2862 3.19986 11.0817 0.13501 7.14312 0.13501ZM7.14312 10.1354C6.57801 10.1354 6.02559 9.96781 5.55572 9.65385C5.08585 9.33989 4.71963 8.89365 4.50337 8.37156C4.28711 7.84946 4.23053 7.27496 4.34078 6.72071C4.45102 6.16646 4.72315 5.65735 5.12274 5.25775C5.52234 4.85816 6.03145 4.58603 6.5857 4.47578C7.13995 4.36554 7.71445 4.42212 8.23654 4.63838C8.75864 4.85464 9.20488 5.22086 9.51884 5.69073C9.8328 6.1606 10.0004 6.71302 10.0004 7.27813C9.99955 8.03567 9.69825 8.76194 9.16259 9.2976C8.62693 9.83326 7.90066 10.1346 7.14312 10.1354Z" fill="#F5F8F8"/>
</svg>
