<svg width="24" height="20" viewBox="0 0 24 20" fill="none" xmlns="http://www.w3.org/2000/svg">
<path d="M20.5258 2.75889C20.2897 1.95841 19.7998 1.2564 19.1298 0.75876C18.4599 0.261118 17.6462 -0.00516571 16.8117 7.59262e-05C15.8445 0.000939199 14.9126 0.363564 14.1992 1.01667C13.4858 1.66977 13.0425 2.5661 12.9564 3.52947H10.5741C10.4868 2.56509 10.0421 1.66821 9.32714 1.01512C8.61223 0.362028 7.67888 -4.28469e-05 6.71056 7.59262e-05C5.87713 -0.00401505 5.06493 0.26283 4.39632 0.760415C3.72772 1.258 3.2389 1.95937 3.00352 2.75889L0.0494116 12.6036C0.0170504 12.7132 0.000413927 12.8269 0 12.9412V14.1177C0.00186865 15.6774 0.622374 17.1727 1.72537 18.2755C2.82837 19.3782 4.32379 19.9984 5.88351 20C7.02666 19.998 8.1445 19.6632 9.10052 19.0365C10.0565 18.4097 10.8093 17.5181 11.267 16.4706H12.2623C12.72 17.5181 13.4728 18.4097 14.4288 19.0365C15.3848 19.6632 16.5027 19.998 17.6458 20C19.2057 19.9984 20.7013 19.3781 21.8044 18.275C22.9074 17.172 23.5278 15.6764 23.5293 14.1165V12.9412C23.5293 12.8259 23.5117 12.713 23.4799 12.6036L20.5258 2.75889ZM5.88351 17.6471C4.94773 17.6458 4.05061 17.2736 3.3888 16.612C2.727 15.9504 2.35449 15.0534 2.35293 14.1177C2.35293 14.0283 2.37293 13.9447 2.37881 13.8565C2.44318 12.9704 2.83992 12.1413 3.48959 11.5353C4.13926 10.9292 4.99388 10.591 5.88233 10.5883C6.81839 10.5883 7.7161 10.9601 8.37799 11.622C9.03988 12.2839 9.41173 13.1816 9.41173 14.1177V14.1283C9.40769 15.0619 9.03437 15.956 8.37331 16.6153C7.71224 17.2746 6.81715 17.6455 5.88351 17.6471ZM17.6458 17.6471C16.7122 17.6455 15.8171 17.2746 15.156 16.6153C14.495 15.956 14.1216 15.0619 14.1176 14.1283V14.1177C14.1175 13.6542 14.2087 13.1952 14.386 12.767C14.5633 12.3387 14.8232 11.9496 15.1509 11.6218C15.8127 10.9598 16.7103 10.5878 17.6464 10.5877C18.5825 10.5875 19.4802 10.9592 20.1422 11.621C20.8042 12.2828 21.1762 13.1804 21.1764 14.1165C21.1751 15.0525 20.8028 15.9498 20.1409 16.6116C19.4791 17.2735 18.5818 17.6458 17.6458 17.6471Z" fill="#002528"/>
</svg>
