<svg width="21" height="21" viewBox="0 0 21 21" fill="none" xmlns="http://www.w3.org/2000/svg">
<path fill-rule="evenodd" clip-rule="evenodd" d="M9.98026 0.13501C10.5736 0.141867 11.2573 0.389866 11.6262 0.973864L11.8506 1.33043C15.2484 6.69582 18.0453 12.3429 20.2016 18.191C20.4828 18.9567 20.021 19.6047 19.4418 19.9052C19.1363 20.0626 18.7875 20.142 18.4341 20.1345C18.0808 20.1271 17.7366 20.0331 17.4399 19.863L11.3411 16.3887C10.6678 16.0047 9.75323 16.0035 9.12246 16.3567L3.14626 19.7007C2.84617 19.8664 2.50009 19.9553 2.14646 19.9573C1.79283 19.9593 1.44548 19.8744 1.14301 19.7121C0.592215 19.4207 0.0994658 18.7887 0.35616 18.0184C2.29158 12.2347 4.88742 6.64082 8.10342 1.32358L8.31497 0.971579C8.68131 0.364723 9.38818 0.129296 9.97897 0.137296L9.98026 0.13501ZM9.97123 1.86415L9.80999 2.13043C6.72722 7.22852 4.22532 12.586 2.34135 18.1235L8.08794 14.9087C9.37787 14.1887 11.1025 14.215 12.3885 14.9475L18.188 18.2527C16.0943 12.6779 13.4069 7.29212 10.1621 2.16815L9.97123 1.86415Z" fill="#F5F8F8"/>
</svg>
