<svg width="35" height="35" viewBox="0 0 35 35" fill="none" xmlns="http://www.w3.org/2000/svg">
<g clip-path="url(#clip0_462_2)">
<path d="M9.90869 32.2813C9.61611 33.4544 10.3284 34.6418 11.5001 34.9344C11.6785 34.9795 11.8569 34.9993 12.0333 34.9993C13.0129 34.9993 13.9043 34.3362 14.1538 33.343L15.8792 26.4407L12.2712 22.8327L9.90869 32.2813ZM10.9266 18.8747L13.7402 7.99805C13.8899 7.42246 13.5256 6.83936 12.9254 6.69512C9.92578 5.97598 6.88583 7.72529 6.13593 10.6032L4.40849 17.3113C4.25878 17.8869 4.62314 18.47 5.22333 18.6143L9.56826 19.6567C10.1691 19.8003 10.7768 19.4503 10.9266 18.8747ZM29.5312 10.9375H28.4375C27.8332 10.9375 27.3437 11.427 27.3437 12.0312V13.125H24.9683L21.7704 9.92715C21.0123 9.16768 20.0026 8.75 18.9294 8.75C17.0823 8.75 15.4793 10.001 15.0309 11.7934L13.1906 19.157C13.0991 19.5235 13.104 19.9075 13.2049 20.2715C13.3057 20.6356 13.4991 20.9673 13.7662 21.2345L19.6875 27.1558V32.8125C19.6875 34.0204 20.6671 35 21.875 35C23.0829 35 24.0625 34.0204 24.0625 32.8125V27.1558C24.0625 25.9875 23.6072 24.889 22.7808 24.0625L19.5802 20.8619C19.5904 20.8277 19.6137 20.8011 19.6226 20.7655L20.9822 15.3262L22.5155 16.8595C22.9257 17.2696 23.4821 17.5007 24.0618 17.5007H27.3431V33.9069C27.3431 34.5112 27.8325 35.0007 28.4368 35.0007H29.5306C30.1349 35.0007 30.6243 34.5112 30.6243 33.9069V12.0312C30.625 11.427 30.1355 10.9375 29.5312 10.9375ZM20.7812 6.5625C22.5935 6.5625 24.0625 5.09346 24.0625 3.28125C24.0625 1.46904 22.5935 0 20.7812 0C18.969 0 17.5 1.46904 17.5 3.28125C17.5 5.09346 18.969 6.5625 20.7812 6.5625Z" fill="#002528"/>
</g>
<defs>
<clipPath id="clip0_462_2">
<rect width="35" height="35" fill="white"/>
</clipPath>
</defs>
</svg>
