<svg width="20" height="20" viewBox="0 0 20 20" fill="none" xmlns="http://www.w3.org/2000/svg">
<path d="M6.93041 0.548239C4.9086 1.24963 3.16498 2.58088 1.95568 4.34647C0.746383 6.11205 0.13514 8.2189 0.211735 10.3576C0.28833 12.4962 1.04873 14.5539 2.38123 16.2285C3.71374 17.903 5.54812 19.1061 7.61493 19.6611C9.29055 20.0935 11.0461 20.1124 12.7307 19.7164C14.2567 19.3736 15.6676 18.6404 16.8251 17.5886C18.0299 16.4604 18.9044 15.0251 19.3546 13.4372C19.8437 11.7103 19.9308 9.89431 19.6091 8.12856H10.1997V12.0318H15.649C15.5401 12.6543 15.3067 13.2485 14.9628 13.7787C14.6189 14.3089 14.1716 14.7643 13.6476 15.1176C12.9822 15.558 12.2321 15.8542 11.4454 15.9871C10.6565 16.1339 9.84723 16.1339 9.05828 15.9871C8.2586 15.822 7.50212 15.4919 6.83714 15.018C5.7687 14.2617 4.96645 13.1873 4.54486 11.948C4.11627 10.6855 4.11627 9.31678 4.54486 8.05426C4.84496 7.16931 5.34105 6.36357 5.99611 5.69717C6.74575 4.92056 7.69482 4.36543 8.73919 4.09269C9.78356 3.81996 10.8829 3.84016 11.9165 4.15107C12.724 4.39883 13.4624 4.83192 14.0728 5.41577C14.6873 4.8045 15.3007 4.19164 15.913 3.57721C16.2292 3.2468 16.5738 2.93221 16.8852 2.5939C15.9533 1.72681 14.8596 1.05207 13.6665 0.608312C11.4939 -0.180564 9.11674 -0.201764 6.93041 0.548239Z" fill="white"/>
<path d="M6.93041 0.548213C9.11655 -0.202299 11.4938 -0.181657 13.6665 0.606706C14.8598 1.05348 15.9531 1.73147 16.8836 2.60178C16.5675 2.94009 16.2339 3.25626 15.9114 3.58509C15.298 4.19741 14.6852 4.80763 14.0728 5.41575C13.4624 4.83189 12.724 4.3988 11.9165 4.15104C10.8832 3.83904 9.78393 3.81768 8.73929 4.0893C7.69464 4.36092 6.74499 4.91502 5.99453 5.69082C5.33946 6.35722 4.84337 7.16296 4.54328 8.04791L1.26611 5.5106C2.43914 3.18443 4.47016 1.40509 6.93041 0.548213Z" fill="#E33629"/>
<path d="M0.396708 8.02422C0.572723 7.15121 0.865164 6.30579 1.26619 5.51062L4.54336 8.05426C4.11477 9.31678 4.11477 10.6854 4.54336 11.948C3.4515 12.7911 2.35911 13.6385 1.26619 14.49C0.262572 12.4923 -0.0435154 10.2161 0.396708 8.02422Z" fill="#F8BD00"/>
<path d="M10.1997 8.12695H19.6091C19.9308 9.8927 19.8437 11.7087 19.3546 13.4356C18.9044 15.0235 18.0299 16.4587 16.8252 17.5869C15.7675 16.7617 14.7052 15.9428 13.6476 15.1176C14.1719 14.7639 14.6195 14.308 14.9634 13.7772C15.3073 13.2464 15.5405 12.6517 15.649 12.0286H10.1997C10.1981 10.7291 10.1997 9.42802 10.1997 8.12695Z" fill="#587DBD"/>
<path d="M1.26465 14.49C2.35756 13.6469 3.44995 12.7995 4.54182 11.9479C4.96424 13.1877 5.76764 14.2622 6.83726 15.018C7.50431 15.4897 8.26241 15.8171 9.06314 15.9792C9.85208 16.1259 10.6613 16.1259 11.4503 15.9792C12.237 15.8462 12.9871 15.55 13.6524 15.1097C14.71 15.9349 15.7724 16.7538 16.83 17.579C15.6726 18.6315 14.2617 19.3652 12.7355 19.7085C11.051 20.1045 9.2954 20.0855 7.61979 19.6532C6.29454 19.2993 5.05667 18.6755 3.98376 17.8209C2.84826 16.9192 1.92077 15.783 1.26465 14.49Z" fill="#319F43"/>
</svg>
