<svg width="20" height="20" viewBox="0 0 20 20" fill="none" xmlns="http://www.w3.org/2000/svg">
<g clip-path="url(#clip0_213_253)">
<path d="M14.9602 0H5.03867C4.61775 0.00016558 4.2141 0.16743 3.91643 0.46504C3.61876 0.762651 3.45142 1.16626 3.45117 1.58719V18.4137C3.45159 18.8346 3.61898 19.2381 3.91662 19.5357C4.21425 19.8333 4.6178 20.0006 5.03867 20.0009H14.9602C15.3812 20.0005 15.7848 19.8332 16.0825 19.5357C16.3803 19.2382 16.5479 18.8347 16.5487 18.4137V1.58969C16.5482 1.16868 16.3806 0.765067 16.0828 0.467483C15.785 0.1699 15.3812 0.0026653 14.9602 0.0025" fill="#405866"/>
<path d="M13.931 1.21127H6.06846C5.73499 1.21127 5.41514 1.34353 5.17905 1.57903C4.94296 1.81453 4.80991 2.13406 4.80908 2.46752V15.801C4.80974 16.1345 4.94274 16.4541 5.17887 16.6896C5.41499 16.9252 5.73494 17.0574 6.06846 17.0572H13.931C14.6247 17.0572 15.1872 16.4916 15.1872 15.801V2.46627C15.1872 1.77252 14.6231 1.21002 13.931 1.21002" fill="#85CFEA"/>
<path d="M9.78135 1.21126H6.07041C5.73694 1.21126 5.41709 1.34351 5.181 1.57901C4.94491 1.81452 4.81186 2.13404 4.81104 2.46751V15.8009C4.8117 16.1345 4.94469 16.4541 5.18082 16.6896C5.41694 16.9252 5.73689 17.0574 6.07041 17.0572H13.9329C14.187 17.0572 14.4217 16.9794 14.6192 16.8513C11.2763 12.4969 9.48697 6.64345 9.78228 1.21063" fill="#28A6DE"/>
<path d="M11.0314 18.5594C11.0314 19.1272 10.5701 19.59 10.001 19.59C9.43198 19.59 8.97073 19.1275 8.97073 18.5594C8.97073 17.9912 9.43198 17.5287 10.001 17.5287C10.5701 17.5287 11.0314 17.9912 11.0314 18.5594ZM7.06105 18.5594C7.06315 18.6596 7.04523 18.7593 7.00833 18.8525C6.97143 18.9458 6.9163 19.0307 6.84617 19.1024C6.77603 19.174 6.6923 19.231 6.59988 19.2699C6.50746 19.3088 6.4082 19.3289 6.30793 19.3289C6.20765 19.329 6.10838 19.309 6.01591 19.2703C5.92344 19.2315 5.83964 19.1746 5.76941 19.103C5.69919 19.0315 5.64395 18.9466 5.60694 18.8534C5.56993 18.7602 5.55188 18.6606 5.55386 18.5603C5.55775 18.3631 5.63879 18.1753 5.7796 18.0371C5.9204 17.899 6.10974 17.8216 6.30699 17.8214C6.50424 17.8213 6.69368 17.8985 6.83466 18.0365C6.97563 18.1744 7.05691 18.3622 7.06105 18.5594ZM12.9407 18.5594C12.9378 18.6601 12.9552 18.7605 12.9917 18.8544C13.0283 18.9484 13.0833 19.034 13.1536 19.1063C13.2238 19.1786 13.3079 19.2361 13.4007 19.2754C13.4936 19.3146 13.5934 19.3348 13.6942 19.3348C13.795 19.3348 13.8948 19.3146 13.9876 19.2754C14.0805 19.2361 14.1645 19.1786 14.2348 19.1063C14.305 19.034 14.3601 18.9484 14.3966 18.8544C14.4332 18.7605 14.4505 18.6601 14.4476 18.5594C14.4476 18.3595 14.3682 18.1679 14.2269 18.0266C14.0856 17.8853 13.894 17.8059 13.6942 17.8059C13.4943 17.8059 13.3027 17.8853 13.1614 18.0266C13.0201 18.1679 12.9407 18.3595 12.9407 18.5594Z" fill="#CBD5DC"/>
</g>
<defs>
<clipPath id="clip0_213_253">
<rect width="20" height="20" fill="white"/>
</clipPath>
</defs>
</svg>
