<svg xmlns="http://www.w3.org/2000/svg" width="35" height="35" viewBox="0 0 35 35" fill="none">
  <path d="M10.3906 16.4062C10.7151 16.4062 11.0323 16.5025 11.3021 16.6827C11.5719 16.863 11.7822 17.1193 11.9064 17.419C12.0305 17.7188 12.063 18.0487 11.9997 18.3669C11.9364 18.6852 11.7802 18.9775 11.5507 19.207C11.3213 19.4364 11.0289 19.5927 10.7107 19.656C10.3924 19.7193 10.0626 19.6868 9.76279 19.5626C9.463 19.4384 9.20677 19.2282 9.0265 18.9584C8.84622 18.6886 8.75 18.3714 8.75 18.0469C8.75 17.6118 8.92285 17.1945 9.23053 16.8868C9.53821 16.5791 9.95551 16.4062 10.3906 16.4062ZM10.3906 14.2188C9.63349 14.2188 8.89337 14.4433 8.26383 14.8639C7.6343 15.2845 7.14364 15.8824 6.8539 16.5819C6.56416 17.2814 6.48835 18.0511 6.63606 18.7937C6.78377 19.5363 7.14836 20.2184 7.68373 20.7538C8.21911 21.2891 8.90121 21.6537 9.6438 21.8014C10.3864 21.9492 11.1561 21.8733 11.8556 21.5836C12.5551 21.2939 13.153 20.8032 13.5736 20.1737C13.9942 19.5441 14.2188 18.804 14.2188 18.0469C14.2188 17.0316 13.8154 16.0579 13.0975 15.34C12.3796 14.6221 11.4059 14.2188 10.3906 14.2188Z" fill="white"/>
  <path d="M27.3438 15.3125H18.5938C18.0136 15.3125 17.4572 15.543 17.047 15.9532C16.6367 16.3635 16.4062 16.9199 16.4062 17.5V24.0625H4.375V11.5938L17.5 4.52814L31.2047 11.9L32.2328 9.97501L18.0141 2.31876C17.8558 2.2345 17.6793 2.19043 17.5 2.19043C17.3207 2.19043 17.1442 2.2345 16.9859 2.31876L2.76719 9.97501C2.59254 10.068 2.44639 10.2066 2.3443 10.3761C2.24222 10.5456 2.18803 10.7396 2.1875 10.9375V32.8125H4.375V26.25H30.625V32.8125H32.8125V20.7813C32.8125 19.3309 32.2363 17.9399 31.2107 16.9143C30.1852 15.8887 28.7942 15.3125 27.3438 15.3125ZM18.5938 24.0625V17.5H27.3438C28.214 17.5 29.0486 17.8457 29.6639 18.4611C30.2793 19.0764 30.625 19.911 30.625 20.7813V24.0625H18.5938Z" fill="white"/>
</svg>