<svg xmlns="http://www.w3.org/2000/svg" width="27" height="35" viewBox="0 0 27 35" fill="none">
  <path d="M5.90881 32.2813C5.61623 33.4544 6.32854 34.6418 7.50021 34.9344C7.67863 34.9795 7.85705 34.9993 8.03342 34.9993C9.01301 34.9993 9.90441 34.3362 10.1539 33.343L11.8793 26.4407L8.27131 22.8327L5.90881 32.2813ZM6.92668 18.8747L9.74035 7.99805C9.89006 7.42246 9.5257 6.83936 8.92551 6.69512C5.9259 5.97598 2.88596 7.72529 2.13605 10.6032L0.408613 17.3113C0.258906 17.8869 0.623261 18.47 1.22346 18.6143L5.56838 19.6567C6.16926 19.8003 6.77697 19.4503 6.92668 18.8747ZM25.5314 10.9375H24.4376C23.8333 10.9375 23.3439 11.427 23.3439 12.0312V13.125H20.9684L17.7705 9.92715C17.0124 9.16768 16.0028 8.75 14.9295 8.75C13.0824 8.75 11.4794 10.001 11.031 11.7934L9.19074 19.157C9.09921 19.5235 9.10412 19.9075 9.20498 20.2715C9.30585 20.6356 9.49924 20.9673 9.76633 21.2345L15.6876 27.1558V32.8125C15.6876 34.0204 16.6672 35 17.8751 35C19.083 35 20.0626 34.0204 20.0626 32.8125V27.1558C20.0626 25.9875 19.6073 24.889 18.7809 24.0625L15.5803 20.8619C15.5905 20.8277 15.6138 20.8011 15.6227 20.7655L16.9823 15.3262L18.5156 16.8595C18.9258 17.2696 19.4822 17.5007 20.0619 17.5007H23.3432V33.9069C23.3432 34.5112 23.8326 35.0007 24.4369 35.0007H25.5307C26.135 35.0007 26.6244 34.5112 26.6244 33.9069V12.0312C26.6251 11.427 26.1357 10.9375 25.5314 10.9375ZM16.7814 6.5625C18.5936 6.5625 20.0626 5.09346 20.0626 3.28125C20.0626 1.46904 18.5936 0 16.7814 0C14.9692 0 13.5001 1.46904 13.5001 3.28125C13.5001 5.09346 14.9692 6.5625 16.7814 6.5625Z" fill="white"/>
</svg>