<svg width="37" height="30" viewBox="0 0 37 30" fill="none" xmlns="http://www.w3.org/2000/svg">
<path d="M19.3975 0.402006C19.2922 0.276147 19.1605 0.174918 19.0119 0.105459C18.8632 0.0359991 18.7011 0 18.537 0C18.3729 0 18.2108 0.0359991 18.0622 0.105459C17.9135 0.174918 17.7819 0.276147 17.6766 0.402006C14.991 3.62162 9.69374 7.44701 6.64689 9.14768C6.49559 9.23242 6.366 9.35107 6.26828 9.49433C6.17057 9.63759 6.1074 9.80155 6.08373 9.97334L3.63593 27.7339H1.67275C1.37523 27.7339 1.08989 27.8521 0.879507 28.0625C0.669125 28.2729 0.550934 28.5582 0.550934 28.8557C0.550934 29.1533 0.669125 29.4386 0.879507 29.649C1.08989 29.8594 1.37523 29.9776 1.67275 29.9776H10.5037C10.5777 29.9933 10.6518 30 10.7281 30H26.2226C26.2979 30.0001 26.3731 29.9926 26.447 29.9776H35.3273C35.6248 29.9776 35.9101 29.8594 36.1205 29.649C36.3309 29.4386 36.4491 29.1533 36.4491 28.8557C36.4491 28.5582 36.3309 28.2729 36.1205 28.0625C35.9101 27.8521 35.6248 27.7339 35.3273 27.7339H33.4404L30.9948 9.97334C30.9709 9.80135 30.9074 9.63725 30.8093 9.49398C30.7111 9.3507 30.5811 9.23216 30.4294 9.14768C27.3825 7.44701 22.0831 3.62162 19.3997 0.402006H19.3975ZM26.7857 27.7339C23.7434 23.4306 21.5783 19.2418 19.5837 11.5843C19.5208 11.3438 19.3799 11.1311 19.183 10.9794C18.9862 10.8277 18.7445 10.7457 18.496 10.7462C18.2475 10.7467 18.0062 10.8297 17.81 10.9822C17.6137 11.1347 17.4737 11.3481 17.4118 11.5888C15.2019 20.1931 12.5903 24.4807 10.1829 27.7339H5.89976L8.23089 10.8282C11.1543 9.11852 15.6483 5.87871 18.5381 2.80718C21.4279 5.87871 25.9197 9.11852 28.8454 10.8282L31.1765 27.7339H26.7857ZM24.0642 27.7339H12.9403C14.8182 25.0012 16.7545 21.4899 18.5 15.9526C20.0795 20.9514 21.843 24.4111 24.062 27.7317L24.0642 27.7339Z" fill="#558285"/>
</svg>
