<svg width="21" height="21" viewBox="0 0 21 21" fill="none" xmlns="http://www.w3.org/2000/svg">
<path d="M20.4263 9.84818L9.78207 0.609879C9.70036 0.539444 9.59612 0.5 9.48624 0.5H6.99283C6.78434 0.5 6.68855 0.759202 6.84632 0.894438L16.7129 9.45938H0.225393C0.101427 9.45938 0 9.56081 0 9.68478V11.3752C0 11.4992 0.101427 11.6006 0.225393 11.6006H16.7101L6.8435 20.1656C6.68573 20.3036 6.78152 20.56 6.99001 20.56H9.56795C9.62148 20.56 9.67501 20.5403 9.71445 20.5037L20.4263 11.2118C20.5238 11.127 20.602 11.0222 20.6556 10.9046C20.7092 10.787 20.7369 10.6593 20.7369 10.53C20.7369 10.4007 20.7092 10.273 20.6556 10.1554C20.602 10.0378 20.5238 9.933 20.4263 9.84818Z" fill="#F5F8F8"/>
</svg>
