<svg width="21" height="20" viewBox="0 0 21 20" fill="none" xmlns="http://www.w3.org/2000/svg">
<path d="M20.9333 7.18002C20.8705 6.99491 20.7548 6.83225 20.6006 6.71214C20.4463 6.59202 20.2603 6.5197 20.0655 6.50411L14.3652 6.05117L11.8985 0.590889C11.82 0.415025 11.6922 0.265654 11.5306 0.160804C11.3691 0.0559538 11.1806 0.000105865 10.988 1.50359e-07C10.7954 -0.000105564 10.6068 0.0555355 10.4452 0.160208C10.2835 0.264881 10.1555 0.414111 10.0768 0.589889L7.6101 6.05117L1.90986 6.50411C1.71834 6.51928 1.53524 6.5893 1.38248 6.70581C1.22972 6.82231 1.11376 6.98036 1.04846 7.16105C0.983173 7.34173 0.971319 7.5374 1.01432 7.72465C1.05732 7.91189 1.15336 8.08278 1.29094 8.21688L5.50338 12.3233L4.01358 18.7745C3.96834 18.9698 3.98284 19.1741 4.05519 19.361C4.12754 19.548 4.25441 19.7088 4.41933 19.8228C4.58424 19.9367 4.7796 19.9984 4.98003 20C5.18047 20.0015 5.37674 19.9427 5.54338 19.8313L10.9877 16.2018L16.4319 19.8313C16.6022 19.9444 16.8031 20.0026 17.0075 19.9981C17.2119 19.9937 17.41 19.9267 17.5752 19.8063C17.7404 19.6858 17.8647 19.5177 17.9315 19.3245C17.9983 19.1313 18.0043 18.9222 17.9487 18.7255L16.12 12.3263L20.6554 8.24487C20.9523 7.97691 21.0613 7.55897 20.9333 7.18002Z" fill="#F5F8F8"/>
</svg>
