<svg width="25" height="32" viewBox="0 0 25 32" fill="none" xmlns="http://www.w3.org/2000/svg">
<path d="M5.55988 29.5138C5.29238 30.5863 5.94362 31.6719 7.01485 31.9394C7.17797 31.9806 7.34109 31.9987 7.50234 31.9987C8.39794 31.9987 9.21293 31.3925 9.44105 30.4844L11.0185 24.1739L7.71983 20.8752L5.55988 29.5138ZM6.49048 17.2565L9.06293 7.31236C9.1998 6.78612 8.86669 6.253 8.31795 6.12113C5.5755 5.46364 2.79618 7.06299 2.11057 9.69419L0.531223 15.8272C0.394351 16.3534 0.727469 16.8865 1.27621 17.0184L5.24863 17.9715C5.798 18.1028 6.35361 17.7828 6.49048 17.2565ZM23.5002 9.9998H22.5002C21.9477 9.9998 21.5002 10.4473 21.5002 10.9998V11.9998H19.3284L16.4047 9.07607C15.7116 8.38171 14.7884 7.99984 13.8072 7.99984C12.1185 7.99984 10.6529 9.14357 10.2429 10.7823L8.56044 17.5147C8.47676 17.8497 8.48125 18.2008 8.57346 18.5336C8.66568 18.8665 8.84249 19.1698 9.08668 19.414L14.5003 24.8276V29.9994C14.5003 31.1038 15.3959 31.9994 16.5003 31.9994C17.6046 31.9994 18.5002 31.1038 18.5002 29.9994V24.8276C18.5002 23.7595 18.084 22.7552 17.3284 21.9996L14.4022 19.0734C14.4116 19.0421 14.4328 19.0178 14.441 18.9853L15.6841 14.0122L17.0859 15.4141C17.4609 15.7891 17.9696 16.0003 18.4996 16.0003H21.4996V31C21.4996 31.5525 21.9471 32 22.4995 32H23.4995C24.052 32 24.4995 31.5525 24.4995 31V10.9998C24.5001 10.4473 24.0526 9.9998 23.5002 9.9998ZM15.5003 5.99988C17.1571 5.99988 18.5002 4.65678 18.5002 2.99994C18.5002 1.3431 17.1571 0 15.5003 0C13.8435 0 12.5004 1.3431 12.5004 2.99994C12.5004 4.65678 13.8435 5.99988 15.5003 5.99988Z" fill="#558285"/>
</svg>
