<svg width="40" height="43" viewBox="0 0 40 43" fill="none" xmlns="http://www.w3.org/2000/svg">
<g filter="url(#filter0_d_237_1632)">
<circle cx="20" cy="20" r="15" fill="#F5F8F8"/>
<path d="M21.5374 27.6799C21.3701 27.6805 21.2048 27.6436 21.0536 27.5719C20.9024 27.5002 20.7693 27.3955 20.6639 27.2656L15.2548 20.5462C15.09 20.3458 15 20.0945 15 19.8351C15 19.5757 15.09 19.3243 15.2548 19.1239L20.8542 12.4046C21.0443 12.1759 21.3175 12.032 21.6136 12.0047C21.9097 11.9774 22.2046 12.0689 22.4333 12.259C22.662 12.4491 22.8058 12.7222 22.8331 13.0184C22.8604 13.3145 22.769 13.6093 22.5789 13.838L17.5729 19.8407L22.4109 25.8433C22.5478 26.0077 22.6348 26.2079 22.6616 26.4201C22.6883 26.6324 22.6537 26.8479 22.5618 27.0411C22.4699 27.2343 22.3246 27.3972 22.143 27.5104C21.9615 27.6236 21.7513 27.6824 21.5374 27.6799Z" fill="#002528"/>
</g>
<defs>
<filter id="filter0_d_237_1632" x="-4" y="0" width="48" height="48" filterUnits="userSpaceOnUse" color-interpolation-filters="sRGB">
<feFlood flood-opacity="0" result="BackgroundImageFix"/>
<feColorMatrix in="SourceAlpha" type="matrix" values="0 0 0 0 0 0 0 0 0 0 0 0 0 0 0 0 0 0 127 0" result="hardAlpha"/>
<feOffset dy="4"/>
<feGaussianBlur stdDeviation="2"/>
<feComposite in2="hardAlpha" operator="out"/>
<feColorMatrix type="matrix" values="0 0 0 0 0 0 0 0 0 0 0 0 0 0 0 0 0 0 0.25 0"/>
<feBlend mode="normal" in2="BackgroundImageFix" result="effect1_dropShadow_237_1632"/>
<feBlend mode="normal" in="SourceGraphic" in2="effect1_dropShadow_237_1632" result="shape"/>
</filter>
</defs>
</svg>
